<?xml version="1.0" encoding="UTF-8" standalone="no"?>
<svg
   width="48"
   height="48"
   viewBox="0 0 12.7 12.7"
   version="1.1"
   id="svg1"
   xmlns="http://www.w3.org/2000/svg"
   xmlns:svg="http://www.w3.org/2000/svg">
  <style>
    path {
      fill: black;
    }
    @media (prefers-color-scheme: dark) {
      path {
        fill: white;
      }
    }
  </style>
  <path
     d="M 1.6374588e-5,10.380264 V 8.4444659 H 1.9675492 v 1.9357981 z m 0,-6.1247389 V 2.3197267 H 1.9675492 v 1.9357984 z"
     id="text3"
     aria-label=":" />
  <path
     d="M 20.228707,23.035395 V 8.8353947 h 3.36 q 1.84,0 3.2,0.84 1.38,0.8200003 2.12,2.4200003 0.76,1.58 0.76,3.86 0,2.28 -0.76,3.86 -0.74,1.58 -2.12,2.4 -1.36,0.82 -3.2,0.82 z m 1.72,-1.68 h 1.54 q 2.08,0 3.22,-1.34 1.16,-1.36 1.16,-4.06 0,-2.7 -1.16,-4.06 -1.14,-1.38 -3.22,-1.38 h -1.54 z"
     id="text4"
     transform="matrix(0.81507477,0,0,0.81507477,-11.482219,-6.6385453)"
     aria-label="D" />
</svg>
