<svg xmlns="http://www.w3.org/2000/svg" fill="none" viewBox="0 0 32 32" id="Alien-Monster" height="32" width="32">
  <desc>
    Alien Monster Emoji
  </desc>
  <style>
    path { fill: black; }
    @media (prefers-color-scheme: dark) {
        path { fill: white; }
    }
  </style>
  <path fill="#000000" d="M8.16 1.423h1.12c0.616 0 1.12 0.504 1.12 1.12v1.6016c0 0.3472 -0.2912 0.6384 -0.6384 0.6384H8.16c-0.616 0 -1.12 -0.504 -1.12 -1.12v-1.12c0 -0.616 0.504 -1.12 1.12 -1.12Z" stroke-width="1"></path>
  <path fill="#000000" d="M11.5088 30.577H12.64c0.616 0 1.12 -0.504 1.12 -1.12v-1.12c0 -0.616 -0.504 -1.12 -1.12 -1.12H9.9184c-0.3472 0 -0.6384 0.2912 -0.6384 0.6384v0.4928c0 1.232 0.9968 2.2288 2.2288 2.2288Z" stroke-width="1"></path>
  <path fill="#000000" d="M18.24 28.337v1.12c0 0.616 0.504 1.12 1.12 1.12h1.1536c1.2208 0 2.2064 -0.9856 2.2064 -2.2064v-0.5152c0 -0.3584 -0.2912 -0.6384 -0.6384 -0.6384H19.36c-0.616 0 -1.12 0.504 -1.12 1.12Z" stroke-width="1"></path>
  <path fill="#000000" d="M24.96 3.663v-1.12c0 -0.616 -0.504 -1.12 -1.12 -1.12h-1.12c-0.616 0 -1.12 0.504 -1.12 1.12v1.6016c0 0.3472 0.2912 0.6384 0.6384 0.6384H23.84c0.616 0 1.12 -0.504 1.12 -1.12Z" stroke-width="1"></path>
  <path fill="#000000" d="M29.44 10.4166c0 -0.616 0.504 -1.12 1.12 -1.12s1.12 0.504 1.12 1.12v4.48c0 0.616 -0.504 1.12 -1.12 1.12h-0.4816c-0.3472 0 -0.6384 0.28 -0.6384 0.6384v0.5152c0 1.2208 -0.9856 2.2064 -2.2064 2.2064h-0.5152c-0.3472 0 -0.6384 0.28 -0.6384 0.6384v4.9728c0 1.232 -0.9968 2.2288 -2.2288 2.2288h-0.4928c-0.3472 0 -0.6384 -0.28 -0.6384 -0.6384V23.375c0 -0.3472 -0.28 -0.6384 -0.6384 -0.6384H9.9184c-0.3472 0 -0.6384 0.28 -0.6384 0.6384v3.2032c0 0.3472 -0.28 0.6384 -0.6384 0.6384H8.16c-1.232 0 -2.24 -1.008 -2.24 -2.24V20.015c0 -0.3472 -0.2912 -0.6384 -0.6384 -0.6384H4.8c-1.232 0 -2.24 -1.008 -2.24 -2.24v-0.4816c0 -0.3472 -0.2912 -0.6384 -0.6384 -0.6384H1.44c-0.616 0 -1.12 -0.504 -1.12 -1.12v-4.48c0 -0.616 0.504 -1.12 1.12 -1.12h0.0336c0.616 0 1.12 0.504 1.12 1.12v1.6016c0 0.3584 0.28 0.6384 0.6384 0.6384l2.016 -0.0112c0.336 -0.0112 0.6272 -0.2464 0.672 -0.5712 0.2688 -2.0272 1.9152 -3.6064 3.9536 -3.864 0.3024 -0.0336 0.5264 -0.3136 0.5264 -0.6272V5.4214c0 -0.3472 0.2912 -0.6384 0.6496 -0.6384h0.336c1.3104 0 2.3744 1.064 2.3744 2.3744v0.3808c0 0.3584 0.2912 0.6384 0.6384 0.6384h3.2032c0.3472 0 0.6384 -0.28 0.6384 -0.6384v-0.4368c0 -1.2768 1.0416 -2.3184 2.3184 -2.3184h0.4032c0.3472 0 0.6384 0.2912 0.6384 0.6384V7.583c0 0.3136 0.224 0.5936 0.5264 0.6272 2.0384 0.2464 3.6624 1.8368 3.92 3.8752 0.0448 0.336 0.336 0.5712 0.672 0.5712h2.0832c0.3472 0 0.6384 -0.28 0.6384 -0.6384v-1.6016ZM10.3999 17.103c0.6209 0 1.131 -0.5078 1.1199 -1.1397v-2.2006c0 -0.6319 -0.499 -1.1397 -1.1199 -1.1397S9.28 13.1308 9.28 13.7627v2.2006c0 0.6319 0.499 1.1397 1.1199 1.1397ZM20.48 15.9633c0 0.6319 0.499 1.1397 1.12 1.1397s1.12 -0.5191 1.12 -1.1397v-2.2006c0 -0.6319 -0.499 -1.1397 -1.12 -1.1397s-1.12 0.5078 -1.12 1.1397v2.2006Z" stroke-width="1"></path>
</svg>
